# xmcd CD database file
# Copyright (C) 1993-2000  Ti Kan
#
# Track frame offsets:
#	170
#	12037
#	23600
#	37617
#	53367
#	68437
#	84825
#	97522
#	109737
#	120350
#	134490
#	145247
#	161762
#	179782
#	188965
#	202930
#	212277
#	223517
#	235502
#	246577
#	261052
#	272407
#	288647
#
# Disc length: 4071 seconds
#
# Revision: 1
# Processed by: cddbd v1.4b42PL0 Copyright (c) Steve Scherf et al.
# Submitted via: xmcd 2.6 PL0
#
DISCID=290fe517
DTITLE=Various Artist - Cajun Saturday Night
DYEAR=1900
DGENRE=
TTITLE0=Dewey Balfa and Friends - Jolie Blonde
TTITLE1=Austin Pitre and The Evangeline Playboys - Poor Hobo
TTITLE2=Aldus Roger and The Lafayette Playboys - Marie
TTITLE3=Jim Oliver - I Love My Saturday Night
TTITLE4=Belton Richard - Let Me Talk To Your Heard
TTITLE5=Paul Daigle and Cajun Gold - Two Step A Paul
TTITLE6=Nathan Abshire - A Musician's Life
TTITLE7=Michael Doucet - Beausoleil - Les Veuves De La Coulee
TTITLE8=Dewey Balfa and Friends - Grand Mamou
TTITLE9=Jambalaya - Bon Whisky
TTITLE10=Balfa Brothers - La Dance Des Mardi Gras
TTITLE11=Cedric Benoit - Le Blues
TTITLE12=Paul Daigle - Robert Elkins and Cajun Gold - I'd Rather Have Lost 
TTITLE12=You
TTITLE13=Camey Doucet et Musique - Who Stole The Pies
TTITLE14=Jim Oliver - You're So Easy To Love
TTITLE15=Belton Richard - Il Fait Chaud! (It's Hot!)
TTITLE16=Adam Hebert - La Pointe Au Pain
TTITLE17=Lawrence Walker - The Midnight Waltz
TTITLE18=Warren Cormier - T Bec Do
TTITLE19=Sundown Playboys - Chere Tout Toute
TTITLE20=The Cajun Tradition - The Cajun Traditional Special
TTITLE21=Sheryl Cormier - Mon Coeur Et Mon Amour
TTITLE22=Paul Daigle - Robert Elkins and Cajun Gold - Georgie-Lou
EXTD=
EXTT0=
EXTT1=
EXTT2=
EXTT3=
EXTT4=
EXTT5=
EXTT6=
EXTT7=
EXTT8=
EXTT9=
EXTT10=
EXTT11=
EXTT12=
EXTT13=
EXTT14=
EXTT15=
EXTT16=
EXTT17=
EXTT18=
EXTT19=
EXTT20=
EXTT21=
EXTT22=
PLAYORDER=
